# xmcd
# Track frame offsets:
# 150
# 20787
# 40675
# 60890
# 73645
# 91672
# 113377
# 137625
# 157855
# 180052
# 206392
#
# Disc length: 3025 seconds
# Revision: 0
# Processed by: cddbd v1.4PL0 Copyright (c) Steve Scherf et al.
# Submitted via: VisiTrax 2.9.5.180 - For more info visit www.synapsa.com
#
DISCID=750bcf0b
DTITLE=Lorraine Rawls - Plains Born
DYEAR=1998
DGENRE=Cowboy
TTITLE0=Plains Born
TTITLE1=The Coyote
TTITLE2=Waltzing The Prairie - Tennessee Waltz
TTITLE3=Mojave
TTITLE4=Walk With Me In The Moonlight
TTITLE5=Blue Mountain
TTITLE6=When The Cold Wind Blows
TTITLE7=Hunker Down Little Cowboy
TTITLE8=Wild Colonial Boy
TTITLE9=The Old Alberta Plains
TTITLE10=Adios Ke Aloha
EXTD=
EXTT0=
EXTT1=
EXTT2=
EXTT3=
EXTT4=
EXTT5=
EXTT6=
EXTT7=
EXTT8=
EXTT9=
EXTT10=
PLAYORDER=
